<svg width="1920" height="1080" viewBox="0 0 1920 1080" fill="none" xmlns="http://www.w3.org/2000/svg">
<g id="background-top" clip-path="url(#clip0)">
<rect width="1920" height="1080" fill="white"/>
<g id="webdev 2">
<g id="webdev 1">
<g id="webdev head">
<path id="Vector" d="M305.348 651.824C334.727 651.824 358.544 626.297 358.544 594.807C358.544 563.317 334.727 537.79 305.348 537.79C275.968 537.79 252.151 563.317 252.151 594.807C252.151 626.297 275.968 651.824 305.348 651.824Z" fill="#E0AC69"/>
<path id="Vector 2" d="M265.643 623.315C265.643 623.315 275.665 704.296 260.246 713.386C244.827 722.476 351.991 723.302 351.991 723.302C351.991 723.302 328.091 653.064 338.884 631.579L265.643 623.315Z" fill="#E0AC69"/>
<path id="Vector 3" d="M261.093 540.874L251.147 536.606C251.147 536.606 271.944 512.065 300.879 514.199L292.74 504.596C292.74 504.596 312.633 496.06 330.717 518.467C340.224 530.246 351.224 544.091 358.08 559.688H368.732L364.286 570.18L379.847 580.672L363.876 578.787C364.827 584.532 364.974 590.398 364.309 596.19C363.624 601.984 360.866 607.265 356.616 610.92C356.616 610.92 344.281 583.553 344.281 579.286V589.955C344.281 589.955 334.335 580.353 334.335 573.951L328.909 581.419L326.197 569.683L292.741 581.419L298.166 571.817L277.369 575.018L285.507 563.281C285.507 563.281 261.998 577.152 261.093 588.888C260.189 600.625 253.307 611.747 253.307 611.747C253.307 611.747 234.871 556.879 261.093 540.874Z" fill="#41280A"/>
</g>
<g id="webdev body">
<path id="webdev torso" d="M430.242 723.712L421.33 767.209L402.485 859.237L401.921 864.277L395.417 922.623L391.091 961.383L388.191 987.42C370.554 997.135 357.771 1003.84 357.771 1003.84C357.771 1003.84 356.672 997.934 354.9 990.374C342.522 994.352 319.619 1000.95 300.21 1002.27C307.278 1010.71 310.526 1018.64 306.12 1024.5C292.824 1042.15 237.932 1005.18 218.733 991.39C218.286 994.691 218.117 998.028 218.227 1001.36L203.534 989.25L204.988 961.383L207.441 914.234L210.523 855.104C209.551 852.573 208.736 849.975 208.085 847.328C203.585 830.177 198.123 795.929 193.935 767.209C190.564 744.096 188.032 724.564 187.497 720.408C187.424 719.866 187.388 719.587 187.388 719.587L268.72 681.067C274.5 695.434 301.491 699.753 301.491 699.753C323.851 698.101 341.379 685.463 341.379 685.463L430.242 723.712Z" fill="#D0CDE1"/>
<path id="webdev leftArm" d="M488.064 923.685C482.645 929.981 469.219 939.464 452.943 949.73C446.888 953.544 440.442 957.475 433.866 961.383C418.176 970.711 401.747 979.953 388.191 987.42C370.554 997.135 357.771 1003.84 357.771 1003.84C357.771 1003.84 356.672 997.934 354.9 990.374C352.527 980.256 348.953 967.175 345.228 961.383C345.097 961.182 344.967 960.996 344.837 960.81C343.752 959.282 342.66 958.39 341.582 958.39L395.417 922.623L418.682 907.162L401.921 864.277L380.899 810.482L393.587 767.209L406.341 723.712H430.242C430.242 723.712 438.156 742.227 448.277 768.047C449.788 771.908 451.351 775.932 452.943 780.088C473.762 834.363 499.718 910.155 488.064 923.685Z" fill="#D0CDE1"/>
<g id="webdev hands">
<path id="Vector 4" d="M363.942 987.319C363.942 987.319 360.499 988.583 354.899 990.374C342.522 994.352 319.619 1000.95 300.21 1002.27C283.5 1003.42 269.379 1000.66 266.796 988.971C265.689 983.946 267.259 979.814 270.681 976.418C280.895 966.268 307.574 962.632 328.734 961.383C334.709 961.034 340.236 960.872 344.837 960.81C352.65 960.701 357.771 960.872 357.771 960.872L357.894 961.383L363.942 987.319Z" fill="#E0AC69"/>
<path id="Vector 5" d="M306.12 1024.5C292.824 1042.15 237.932 1005.18 218.733 991.39C214.552 988.389 212.063 986.49 212.063 986.49L229.628 961.383L235.191 953.436C235.191 953.436 240.168 956.266 247.525 960.872C247.792 961.042 248.06 961.213 248.335 961.383C254.679 965.376 262.644 970.595 270.681 976.418C281.771 984.458 292.983 993.631 300.21 1002.27C307.278 1010.71 310.526 1018.64 306.12 1024.5Z" fill="#E0AC69"/>
</g>
<path id="webdev rightArm" d="M247.525 960.872C245.561 960.864 243.602 961.034 241.665 961.383C225.034 964.446 220.129 980.581 218.733 991.39C218.286 994.691 218.117 998.028 218.227 1001.36L203.534 989.25L198.181 984.838C185.297 980.023 173.817 971.471 163.863 961.383C155.228 952.477 147.481 942.631 140.75 932.005C134.046 921.531 128.069 910.543 122.868 899.129C121.416 895.944 120.637 892.457 120.583 888.913C120.529 885.368 121.203 881.855 122.557 878.621L140.75 835.162L167.343 771.644C167.538 770.132 167.753 768.654 167.986 767.209C173.26 734.799 187.388 720.408 187.388 720.408H198.181L205.401 767.209L214.371 825.354L208.085 847.328L193.559 898.075L207.441 914.234L247.525 960.872Z" fill="#D0CDE1"/>
<path id="Vector 6" d="M259.741 825.4L268.967 836.938C272.395 836.238 275.975 835.414 279.663 834.49L277.012 825.4L283.492 833.503C322.554 823.206 370.971 803.185 370.971 803.185C370.971 803.185 318.7 807.293 279.671 798.154C262.404 794.111 244.637 803.285 237.55 820.642C233.432 830.729 234.079 839.47 248.686 839.47C253.622 839.379 258.545 838.883 263.41 837.985L259.741 825.4Z" fill="#0C00FF"/>
</g>
<path id="Vector 7" d="M470.087 1015.04V1019.74C470.09 1021.04 469.867 1022.32 469.429 1023.52C469.235 1024.06 469 1024.58 468.727 1025.07C467.865 1026.62 466.642 1027.91 465.177 1028.8C463.713 1029.69 462.057 1030.16 460.372 1030.16H137.336C135.652 1030.16 133.996 1029.69 132.531 1028.8C131.066 1027.91 129.843 1026.62 128.98 1025.07C128.708 1024.58 128.473 1024.06 128.279 1023.52C127.841 1022.32 127.618 1021.04 127.62 1019.74V1015.04C127.62 1013.67 127.871 1012.32 128.36 1011.05C128.847 1009.79 129.563 1008.64 130.466 1007.67C131.368 1006.71 132.439 1005.94 133.617 1005.42C134.797 1004.89 136.06 1004.63 137.336 1004.63H155.956V1002.43C155.956 1002.37 155.967 1002.32 155.987 1002.27C156.007 1002.21 156.037 1002.16 156.075 1002.12C156.112 1002.08 156.157 1002.05 156.206 1002.03C156.256 1002.01 156.308 1002 156.361 1002H166.077C166.13 1002 166.183 1002.01 166.232 1002.03C166.281 1002.05 166.325 1002.08 166.364 1002.12C166.401 1002.16 166.431 1002.21 166.451 1002.27C166.472 1002.32 166.482 1002.37 166.482 1002.43V1004.63H172.551V1002.43C172.551 1002.37 172.561 1002.32 172.582 1002.27C172.602 1002.21 172.632 1002.16 172.67 1002.12C172.707 1002.08 172.752 1002.05 172.801 1002.03C172.851 1002.01 172.903 1002 172.956 1002H182.671C182.725 1002 182.778 1002.01 182.827 1002.03C182.876 1002.05 182.92 1002.08 182.958 1002.12C182.996 1002.16 183.026 1002.21 183.046 1002.27C183.066 1002.32 183.077 1002.37 183.077 1002.43V1004.63H189.153V1002.43C189.153 1002.37 189.164 1002.32 189.184 1002.27C189.204 1002.21 189.234 1002.16 189.272 1002.12C189.309 1002.08 189.354 1002.05 189.403 1002.03C189.453 1002.01 189.505 1002 189.558 1002H199.274C199.327 1002 199.38 1002.01 199.429 1002.03C199.478 1002.05 199.522 1002.08 199.56 1002.12C199.598 1002.16 199.628 1002.21 199.648 1002.27C199.669 1002.32 199.679 1002.37 199.679 1002.43V1004.63H205.748V1002.43C205.748 1002.37 205.759 1002.32 205.779 1002.27C205.799 1002.21 205.829 1002.16 205.867 1002.12C205.904 1002.08 205.949 1002.05 205.998 1002.03C206.048 1002.01 206.1 1002 206.153 1002H215.868C215.922 1002 215.975 1002.01 216.024 1002.03C216.073 1002.05 216.117 1002.08 216.155 1002.12C216.193 1002.16 216.223 1002.21 216.243 1002.27C216.263 1002.32 216.274 1002.37 216.274 1002.43V1004.63H222.343V1002.43C222.343 1002.37 222.353 1002.32 222.374 1002.27C222.394 1002.21 222.424 1002.16 222.462 1002.12C222.499 1002.08 222.544 1002.05 222.593 1002.03C222.642 1002.01 222.695 1002 222.748 1002H232.463C232.517 1002 232.57 1002.01 232.619 1002.03C232.668 1002.05 232.712 1002.08 232.75 1002.12C232.787 1002.16 232.818 1002.21 232.838 1002.27C232.858 1002.32 232.868 1002.37 232.868 1002.43V1004.63H238.945V1002.43C238.945 1002.37 238.955 1002.32 238.976 1002.27C238.996 1002.21 239.026 1002.16 239.064 1002.12C239.101 1002.08 239.146 1002.05 239.195 1002.03C239.245 1002.01 239.297 1002 239.35 1002H249.065C249.119 1002 249.172 1002.01 249.221 1002.03C249.27 1002.05 249.314 1002.08 249.352 1002.12C249.39 1002.16 249.42 1002.21 249.44 1002.27C249.46 1002.32 249.471 1002.37 249.471 1002.43V1004.63H255.54V1002.43C255.54 1002.37 255.55 1002.32 255.571 1002.27C255.591 1002.21 255.621 1002.16 255.659 1002.12C255.696 1002.08 255.741 1002.05 255.79 1002.03C255.839 1002.01 255.892 1002 255.945 1002H332.047C332.101 1002 332.154 1002.01 332.203 1002.03C332.252 1002.05 332.296 1002.08 332.334 1002.12C332.372 1002.16 332.402 1002.21 332.422 1002.27C332.442 1002.32 332.452 1002.37 332.452 1002.43V1004.63H338.529V1002.43C338.529 1002.37 338.539 1002.32 338.56 1002.27C338.58 1002.21 338.61 1002.16 338.648 1002.12C338.685 1002.08 338.73 1002.05 338.779 1002.03C338.828 1002.01 338.881 1002 338.934 1002H348.649C348.756 1002 348.859 1002.04 348.935 1002.13C349.01 1002.21 349.054 1002.32 349.054 1002.43V1004.63H355.124V1002.43C355.124 1002.37 355.135 1002.32 355.155 1002.27C355.175 1002.21 355.205 1002.16 355.242 1002.12C355.28 1002.08 355.325 1002.05 355.374 1002.03C355.423 1002.01 355.476 1002 355.529 1002H365.244C365.298 1002 365.351 1002.01 365.4 1002.03C365.449 1002.05 365.494 1002.08 365.531 1002.12C365.569 1002.16 365.599 1002.21 365.619 1002.27C365.639 1002.32 365.649 1002.37 365.649 1002.43V1004.63H371.719V1002.43C371.719 1002.37 371.73 1002.32 371.75 1002.27C371.77 1002.21 371.8 1002.16 371.837 1002.12C371.875 1002.08 371.92 1002.05 371.969 1002.03C372.018 1002.01 372.071 1002 372.124 1002H381.839C381.893 1002 381.945 1002.01 381.995 1002.03C382.044 1002.05 382.089 1002.08 382.126 1002.12C382.164 1002.16 382.194 1002.21 382.214 1002.27C382.234 1002.32 382.244 1002.37 382.244 1002.43V1004.63H388.321V1002.43C388.321 1002.37 388.332 1002.32 388.352 1002.27C388.372 1002.21 388.402 1002.16 388.439 1002.12C388.477 1002.08 388.522 1002.05 388.571 1002.03C388.62 1002.01 388.673 1002 388.726 1002H398.441C398.548 1002 398.65 1002.04 398.724 1002.13C398.799 1002.21 398.84 1002.32 398.839 1002.43V1004.63H404.916V1002.43C404.916 1002.37 404.927 1002.32 404.947 1002.27C404.967 1002.21 404.997 1002.16 405.034 1002.12C405.072 1002.08 405.117 1002.05 405.166 1002.03C405.215 1002.01 405.268 1002 405.321 1002H415.036C415.09 1002 415.142 1002.01 415.192 1002.03C415.241 1002.05 415.286 1002.08 415.323 1002.12C415.361 1002.16 415.391 1002.21 415.411 1002.27C415.431 1002.32 415.441 1002.37 415.441 1002.43V1004.63H421.511V1002.43C421.511 1002.37 421.521 1002.32 421.542 1002.27C421.562 1002.21 421.592 1002.16 421.629 1002.12C421.667 1002.08 421.712 1002.05 421.761 1002.03C421.81 1002.01 421.863 1002 421.916 1002H431.631C431.685 1002 431.737 1002.01 431.787 1002.03C431.836 1002.05 431.881 1002.08 431.918 1002.12C431.956 1002.16 431.985 1002.21 432.006 1002.27C432.026 1002.32 432.036 1002.37 432.036 1002.43V1004.63H460.372C461.648 1004.63 462.912 1004.89 464.09 1005.42C465.269 1005.94 466.341 1006.71 467.243 1007.67C468.145 1008.64 468.86 1009.79 469.349 1011.05C469.837 1012.32 470.088 1013.67 470.087 1015.04Z" fill="#3F3D56"/>
</g>
</g>
<g id="portfolio-bg-02 1" clip-path="url(#clip1)">
<g id="Layer 2">
<path id="Vector_2" d="M0.352295 254.372V0H1920V440.15C1920 440.15 1754.77 632.472 1448.65 557.932C1142.53 483.393 1272.67 743.896 913.886 649.392C555.097 554.889 449.348 841.029 449.348 841.029H262.793C262.793 841.029 515.748 692.021 437.051 581.983C437.051 581.983 375.218 469.088 229.066 449.081C82.9141 429.074 0.352295 254.372 0.352295 254.372Z" fill="url(#paint0_radial)"/>
<path id="Vector_3" d="M68.8599 421.929C64.11 426.331 62.8593 434.791 64.644 440.507C74.6779 472.375 196.476 468.159 198.148 456.226C198.893 450.91 174.651 451.611 108.209 426.216C95.0127 421.172 77.3761 414.041 68.8599 421.929Z" fill="url(#paint1_radial)"/>
<path id="Vector_4" d="M1273.21 599.132C1270.99 587.957 1393.68 548.986 1398.28 559.118C1399.98 562.877 1385.29 573.066 1378.61 577.696C1333.26 609.136 1274.68 606.592 1273.21 599.132Z" fill="url(#paint2_radial)"/>
</g>
<g id="Layer 3">
<path id="Vector_5" opacity="0.2" d="M0 101.82L0.351327 0L111.019 0.357264C111.019 0.357264 292.304 173.273 543.854 130.401C795.403 87.5297 796.809 160.412 1051.17 194.709C1305.53 229.006 1372.98 417.642 1562.7 324.753C1752.42 231.864 1919.65 243.297 1919.65 243.297L1920 350.205C1920 350.205 1762.25 309.034 1606.27 376.199C1450.28 443.365 1309.75 461.943 1194.51 360.48C1079.28 259.017 913.449 168.986 813.672 196.138C713.896 223.29 580.392 253.3 456.725 229.006C333.058 204.712 125.072 90.3879 66.0494 100.391C7.02653 110.395 0 101.82 0 101.82Z" fill="white"/>
<path id="Vector_6" opacity="0.2" d="M16.4843 283.553C16.4843 283.553 107.548 417.085 127.503 407.353C147.459 397.621 88.5343 326.182 267.008 334.757C445.482 343.331 331.245 482.535 331.245 482.535L400.99 535.753C400.99 535.753 378.027 428.817 583.202 409.653C788.377 390.49 803.835 493.382 1011.82 481.949C1219.81 470.517 1226.23 589.386 1226.23 589.386L1335.13 544.828C1335.13 544.828 1111.6 284.74 949.987 304.746C788.377 324.753 591.634 369.054 411.755 290.456C231.876 211.858 16.4843 283.553 16.4843 283.553Z" fill="white"/>
<path id="Vector_7" opacity="0.2" d="M843.184 0.357262C843.184 0.357262 892.37 167.557 1111.6 146.121C1330.83 124.685 1288.67 257.588 1513.52 206.141C1738.36 154.695 1748.2 98.9622 1833.92 144.692L1919.65 190.422L1920 76.0973C1920 76.0973 1739.77 26.0803 1602.05 90.3878C1464.33 154.695 1335.13 97.5331 1335.13 97.5331C1335.13 97.5331 1239.48 48.9452 1150.95 66.0939C1062.41 83.2426 994.957 0.357262 994.957 0.357262H843.184Z" fill="white"/>
<path id="Vector_8" opacity="0.3" d="M428.253 568.365C428.253 568.365 477.073 623.769 440.198 675.044C440.198 675.044 504.505 600.561 612.714 581.983C720.922 563.406 806.505 631.243 806.505 631.243L953.964 658.895C953.964 658.895 715.301 433.362 650.657 479.091C586.013 524.821 614.119 580.326 521.369 574.009C428.619 567.693 428.253 568.365 428.253 568.365Z" fill="white"/>
<path id="Vector_9" opacity="0.2" d="M1341.87 564.149L1358.09 585.099L1280.23 614.852L1257.75 585.099L1341.87 564.149Z" fill="white"/>
</g>
</g>
<path id="webdev computer" d="M444.077 816.833H323.672V814.173H269.075V816.833H148.173C146.013 816.833 143.941 817.753 142.414 819.39C140.886 821.027 140.028 823.247 140.028 825.562V1002.28C140.028 1004.59 140.886 1006.81 142.414 1008.45C143.941 1010.09 146.013 1011.01 148.173 1011.01H444.077C446.237 1011.01 448.308 1010.09 449.836 1008.45C451.363 1006.81 452.221 1004.59 452.221 1002.28V825.562C452.221 824.416 452.011 823.281 451.601 822.222C451.192 821.163 450.592 820.201 449.836 819.39C449.08 818.579 448.182 817.936 447.194 817.498C446.205 817.059 445.146 816.833 444.077 816.833Z" fill="#3F3D56"/>
<path id="Vector 8" d="M296.362 897.912C306.35 897.912 314.447 889.234 314.447 878.528C314.447 867.823 306.35 859.144 296.362 859.144C286.374 859.144 278.277 867.823 278.277 878.528C278.277 889.234 286.374 897.912 296.362 897.912Z" stroke="#D0CDE1" stroke-width="2" stroke-miterlimit="10"/>
<path id="Vector 9" d="M290.574 904.89C300.562 904.89 308.659 896.212 308.659 885.506C308.659 874.801 300.562 866.122 290.574 866.122C280.586 866.122 272.489 874.801 272.489 885.506C272.489 896.212 280.586 904.89 290.574 904.89Z" fill="#D0CDE1"/>
</g>
<defs>
<radialGradient id="paint0_radial" cx="0" cy="0" r="1" gradientUnits="userSpaceOnUse" gradientTransform="translate(960.177 420.5) scale(1005.15 1022.13)">
<stop stop-color="#03DAC5"/>
<stop offset="0.09" stop-color="#06D2C6"/>
<stop offset="0.23" stop-color="#0FBECA"/>
<stop offset="0.4" stop-color="#1E9CD1"/>
<stop offset="0.59" stop-color="#336CDA"/>
<stop offset="0.8" stop-color="#4D31E5"/>
<stop offset="0.95" stop-color="#6200EE"/>
</radialGradient>
<radialGradient id="paint1_radial" cx="0" cy="0" r="1" gradientUnits="userSpaceOnUse" gradientTransform="translate(12584.3 14834.6) scale(6522.77 2266.96)">
<stop stop-color="#03DAC5"/>
<stop offset="0.09" stop-color="#06D2C6"/>
<stop offset="0.23" stop-color="#0FBECA"/>
<stop offset="0.4" stop-color="#1E9CD1"/>
<stop offset="0.59" stop-color="#336CDA"/>
<stop offset="0.8" stop-color="#4D31E5"/>
<stop offset="0.95" stop-color="#6200EE"/>
</radialGradient>
<radialGradient id="paint2_radial" cx="0" cy="0" r="1" gradientUnits="userSpaceOnUse" gradientTransform="translate(120317 19427.9) scale(5713.35 2119.89)">
<stop stop-color="#03DAC5"/>
<stop offset="0.09" stop-color="#06D2C6"/>
<stop offset="0.23" stop-color="#0FBECA"/>
<stop offset="0.4" stop-color="#1E9CD1"/>
<stop offset="0.59" stop-color="#336CDA"/>
<stop offset="0.8" stop-color="#4D31E5"/>
<stop offset="0.95" stop-color="#6200EE"/>
</radialGradient>
<clipPath id="clip0">
<rect width="1920" height="1080" fill="white"/>
</clipPath>
<clipPath id="clip1">
<rect width="1920" height="841" fill="white"/>
</clipPath>
</defs>
</svg>
