<?xml version="1.0" encoding="utf-8"?>
<!-- Generator: Adobe Illustrator 25.2.1, SVG Export Plug-In . SVG Version: 6.00 Build 0)  -->
<svg version="1.1" id="Layer_2" xmlns="http://www.w3.org/2000/svg" xmlns:xlink="http://www.w3.org/1999/xlink" x="0px" y="0px"
	 viewBox="0 0 1366 768" style="enable-background:new 0 0 1366 768;" xml:space="preserve">
<style type="text/css">
	.st0{opacity:0.25;fill:#FFFFFF;}
</style>
<path class="st0" d="M0,470V345c0,0,513,264,683,117s683-95,683-95v76c0,0-288,30-179,76s179,0,179,0v91c0,0-307,47-367-11
	s-83-107-341-25S0,470,0,470z"/>
<path class="st0" d="M536.02,279.4l75.06-105.03C733.23,282.69,801.68,290.08,842,275c41.84-15.65,75.42-63.75,127-54
	c18.88,3.57,42.13,15.26,71,5.88c13.18-4.28,22.83-11.42,29-16.88c0,0,48.3,42.48,63.15,51.24c-37.74-8.53-94.89-15.37-155.15,5.76
	c-62.03,21.75-60.33,49.63-114,65c-50.15,14.36-77.05-2.7-229-34C591.46,289.24,556.93,283.03,536.02,279.4z"/>
<path class="st0" d="M0,716v-88.03c0,0,308-71.97,355,7.03s204,81,251,108s47,27,47,27l-179-2c0,0-182-21.03-187-84.01S0,716,0,716z
	"/>
</svg>
