<svg xmlns="http://www.w3.org/2000/svg" xmlns:xlink="http://www.w3.org/1999/xlink" viewBox="0 0 1366 768"><defs><style>.cls-1{fill:url(#radial-gradient);}.cls-2{fill:url(#radial-gradient-2);}.cls-3{fill:url(#radial-gradient-3);}.cls-4,.cls-5,.cls-6,.cls-7{fill:#fff;}.cls-4{opacity:0.3;}.cls-5{opacity:0.35;}.cls-6{opacity:0.4;}.cls-7{opacity:0.2;}</style><radialGradient id="radial-gradient" cx="682.75" cy="294.25" fx="306.09464421132736" fy="549.757433337313" r="715.47" gradientUnits="userSpaceOnUse"><stop offset="0" stop-color="#03dac5"/><stop offset="0.09" stop-color="#06d2c6"/><stop offset="0.23" stop-color="#0fbeca"/><stop offset="0.4" stop-color="#1e9cd1"/><stop offset="0.59" stop-color="#336cda"/><stop offset="0.8" stop-color="#4d31e5"/><stop offset="0.95" stop-color="#6200ee"/></radialGradient><radialGradient id="radial-gradient-2" cx="987.32" cy="421.12" fx="974.9954107221319" fy="429.47924540876636" r="23.41" xlink:href="#radial-gradient"/><radialGradient id="radial-gradient-3" cx="138.58" cy="353.96" fx="108.61657000758153" fy="374.2921869292731" r="56.92" gradientTransform="translate(-12.55 80.74) scale(1.11 0.75)" xlink:href="#radial-gradient"/></defs><g id="Layer_1" data-name="Layer 1"><path class="cls-1" d="M0,0-.5,172.5,0,178s19.5,71.5,138.5,132.5C189.64,336.71,220.92,391.73,240,446c5.46,12.1,8.93,24.94,11.58,38A580.59,580.59,0,0,1,269,588.5h50.5s89-135,223-154,47,32,195,35,167-110,340-72S1366,308,1366,308V0Z"/><path class="cls-2" d="M976,434c60-11,21-35,0-22S976,434,976,434Z"/><path class="cls-3" d="M121.31,337.15c24.52,35.78,86.92,61.13,54.61,18.64s-92.49-54.42-73.55-36.53Z"/></g><g id="Layer_2" data-name="Layer 2"><path class="cls-4" d="M66,0H0V47S104,195,257,175s61,37,268,28,173-75,430-13,411-46,411-46V84s-189,66-375,39-220,53-435-6-164,43-290,10S66,0,66,0Z"/><path class="cls-5" d="M235.82,462.47c-.69.47-1.38.94-2.08,1.39,5.67,26.92,11.64,53.87,15.75,81.06,1.56,10.29,2.89,20.63,5,30.84l3.79,3.32c-1.3-17.9-6.59-35.93-9.59-53.15C245,505.05,242.67,482.84,235.82,462.47Z"/><path class="cls-5" d="M1177,404.87c4.87-1.14,10.27.07,14.75,2.42,21.85-4.7,41.39-18.13,63.85-19.75L1324,344l-51-49.75C1222,244.5,1152,319,1008,242s-187-14-285,3-195,12-385-25S61.52,259.73,61.52,259.73L99,373s34-88,121-78.75S326,313,275,415c-9.13,18.27-19.72,31.58-30.93,41.15,7.82,22,10.45,45.78,14.48,68.57,3.64,20.64,10,42,9.88,63.28l.57.5S283,545,337,403s146-43,397-91,123,28,336,25.3C1178.87,335.91,1191.07,370.61,1177,404.87Z"/><path class="cls-6" d="M778,396.55c-176-68.46-160.86,37-160.86,37s-1.83,7.5-3.55,17.72c10,5.59,20.26,10.8,30.52,16,4.13,1.58,8.19,3.33,12.24,5.12C660.46,465,668.56,456.54,683,447c29.35-19.39,110.91-10.49,181.87,2.38a151.07,151.07,0,0,1,16.07-13.67c3.51-2.64,7.28-5.29,11.24-7.78C868,426.09,831.87,417.5,778,396.55Z"/><path class="cls-7" d="M246,0s4,78,233,65,133,49,306,25S949,0,949,0H841S829,76,704,42,504,62,457,31L410,0Z"/></g></svg>