<svg width="201" height="580" viewBox="0 0 201 580" fill="none" xmlns="http://www.w3.org/2000/svg">
<g id="tipito">
<path id="Vector" d="M130.496 561.802L147.125 561.8L155.035 497.734L130.493 497.735L130.496 561.802Z" fill="#FFB7B7"/>
<path id="Vector_2" d="M126.254 556.379L159.003 556.377H159.004C164.539 556.377 169.847 558.574 173.761 562.483C177.675 566.392 179.874 571.694 179.874 577.223V577.9L126.255 577.902L126.254 556.379Z" fill="#2F2E41"/>
<path id="Vector_3" d="M64.0329 563.157L80.6621 563.155L88.5726 499.089L64.0302 499.09L64.0329 563.157Z" fill="#FFB7B7"/>
<path id="Vector_4" d="M59.7913 557.733L92.5398 557.732H92.5412C98.0761 557.732 103.384 559.929 107.298 563.838C111.212 567.747 113.411 573.049 113.411 578.578V579.255L59.7923 579.257L59.7913 557.733Z" fill="#2F2E41"/>
<path id="Vector_5" d="M165.396 292.447L156.941 539.301H129.813L104.103 318.087L93.1909 542.011H59.2813L49.9124 276.779L154.015 275.354L165.396 292.447Z" fill="#2F2E41"/>
<path id="Vector_6" d="M81.9982 92.3701L129.813 90.8582L140.468 287.462L64.886 285.95L81.9982 92.3701Z" fill="#CBCBCB"/>
<path id="Vector_7" d="M119.79 298.145L169.702 296.721L155.441 225.5L156.867 184.192L168.276 117.245L136.902 98.7272L129.772 90.1807C129.772 90.1807 118.363 101.576 118.363 154.279C118.363 206.983 119.79 298.145 119.79 298.145Z" fill="#2F2E41"/>
<path id="Vector_8" d="M77.0076 296.721C77.0076 296.721 119.79 193.826 101.251 147.701C101.251 147.701 94.9401 97.3028 84.5478 90.1807L68.4512 97.3028L34.2256 114.396L47.0602 150.006L42.782 179.919L39.9299 283.901L77.0076 296.721Z" fill="#2F2E41"/>
<path id="Vector_9" d="M47.5179 298.843C45.7484 298.013 44.1828 296.806 42.9311 295.306C41.6794 293.806 40.7722 292.05 40.2735 290.162C39.7747 288.274 39.6964 286.299 40.0441 284.378C40.3919 282.456 41.1572 280.634 42.2862 279.04L26.0057 253.211L39.3075 239.5L61.7858 276.299C64.3411 278.371 66.0468 281.307 66.5796 284.551C67.1124 287.796 66.4353 291.122 64.6766 293.901C62.9179 296.68 60.1998 298.718 57.0374 299.629C53.8749 300.54 50.4879 300.26 47.5179 298.843V298.843Z" fill="#FFB7B7"/>
<path id="Vector_10" d="M49.9124 111.547L34.2256 114.396L0 197.012L31.3735 278.203L52.7645 258.262L32.7995 209.832C32.7995 209.832 34.2256 204.134 32.7995 203.422C31.3735 202.709 34.8949 198.124 34.2256 197.769C32.7995 197.012 37.0777 189.89 37.0777 189.89L54.1905 154.279L49.9124 111.547Z" fill="#2F2E41"/>
<g id="brazo-izq">
<path id="Vector_11" d="M177.545 323.519C176.088 322.218 174.934 320.613 174.164 318.818C173.395 317.023 173.029 315.081 173.092 313.13C173.155 311.178 173.646 309.264 174.529 307.522C175.413 305.78 176.669 304.253 178.207 303.049L170.01 273.645L186.684 264.311L197.677 305.997C199.531 308.713 200.324 312.014 199.905 315.275C199.486 318.536 197.884 321.53 195.403 323.689C192.921 325.849 189.733 327.025 186.442 326.993C183.15 326.962 179.985 325.726 177.545 323.519H177.545Z" fill="#FFB7B7"/>
<path id="Vector_12" d="M152.588 117.245H168.276L185.389 205.558L183.963 219.802L189.667 255.412L197.511 291.735L172.554 292.448L159.719 225.499L148.31 179.919L152.588 117.245Z" fill="#2F2E41"/>
</g>
<g id="cabeza">
<path id="Vector_13" d="M106.707 79.2271C125.106 79.2271 140.022 64.3291 140.022 45.9515C140.022 27.5739 125.106 12.6759 106.707 12.6759C88.3085 12.6759 73.3932 27.5739 73.3932 45.9515C73.3932 64.3291 88.3085 79.2271 106.707 79.2271Z" fill="#FFB7B7"/>
<path id="Vector_14" d="M133.169 19.0658L139.084 16.9173C139.084 16.9173 126.716 4.5634 109.508 5.63769L114.348 0.803516C114.348 0.803516 102.517 -3.49346 91.7625 7.78621C86.1088 13.7157 79.5674 20.6854 75.4895 28.5368H69.1547L71.7986 33.8185L62.5449 39.1002L72.043 38.1515C71.1432 42.7115 71.4529 47.4272 72.9413 51.8306L75.0923 57.739C75.0923 57.739 83.6963 40.5509 83.6963 38.4024V43.7737C83.6963 43.7737 89.6116 38.9396 89.6116 35.7169L92.8381 39.4766L94.4514 33.5682L114.348 39.4766L111.122 34.6425L123.49 36.2539L118.65 30.3455C118.65 30.3455 132.632 37.3281 133.169 43.2365C133.707 49.1449 140.698 56.6647 140.698 56.6647L143.924 51.2934C143.924 51.2934 148.764 27.1227 133.169 19.0658Z" fill="#2F2E41"/>
</g>
</g>
</svg>
